<?xml version="1.0" encoding="utf-8"?>
<!-- Svg Vector Icons : http://www.onlinewebfonts.com/icon -->
<!DOCTYPE svg PUBLIC "-//W3C//DTD SVG 1.1//EN" "http://www.w3.org/Graphics/SVG/1.1/DTD/svg11.dtd">
<svg version="1.1" xmlns="http://www.w3.org/2000/svg" xmlns:xlink="http://www.w3.org/1999/xlink" x="0px" y="0px" viewBox="0 0 1000 1000" enable-background="new 0 0 1000 1000" xml:space="preserve">
<metadata> Svg Vector Icons : http://www.onlinewebfonts.com/icon </metadata>
<g><g transform="translate(0.000000,512.000000) scale(0.100000,-0.100000)"><path d="M3786.3,5015.4c0-7.7,40.3-111.2,88.2-232c218.6-546.4,448.7-1299.9,590.5-1942.3c216.7-974,329.8-1915.4,387.3-3228.8c11.5-285.7,13.4-293.4,53.7-283.8c82.5,17.3,667.2,67.1,1056.5,88.2c671.1,36.4,1750.5,0,2339.1-78.6c72.9-9.6,134.2-15.3,138.1-13.4c7.7,7.7-51.8,429.5-101.6,703.6C8006.3,1917,7158.9,3376.1,5905,4215.9c-398.8,268.4-755.4,441-1227.1,598.2C4346.2,4923.4,3786.3,5049.9,3786.3,5015.4z"/><path d="M3280.2,4240.8C3099.9,3529.5,2764.4,2659,2012.8,948.8c-556-1265.4-807.2-1871.3-974-2352.6l-69-193.6l224.3,74.8c423.7,143.8,1029.6,320.2,1499.4,439.1c465.9,117,1227.1,276.1,1430.3,299.1c57.5,7.7,109.3,19.2,113.1,28.8c15.3,24.9-26.8,895.4-67.1,1372.8c-92,1077.5-258.8,2020.9-519.6,2912.4c-57.5,199.4-279.9,860.9-302.9,903.1C3341.5,4446,3310.8,4359.7,3280.2,4240.8z"/><path d="M9174-1191c-4124.2-245.4-7429.6-759.2-8848.5-1374.7c-224.3-97.8-230.1-101.6-224.3-157.2c15.3-143.8,337.5-901.1,423.7-995.1c72.9-80.5,186-126.5,314.4-126.5c118.9,0,180.2,19.2,550.3,172.6c327.9,134.2,542.6,191.7,786.1,205.2c174.5,7.6,214.7,3.8,308.7-30.7c136.1-51.7,253.1-153.4,325.9-281.8l57.5-101.6l80.5,36.4c44.1,19.2,157.2,69,251.2,113.1c400.7,186,678.7,258.8,989.3,260.8c191.7,0,232-5.7,310.6-44.1c113.1-55.6,232-170.6,285.7-276.1c23-46,44.1-84.4,46-88.2c1.9-2,80.5,30.7,174.5,74.7c504.2,235.8,788,322.1,1100.5,337.5c174.5,7.6,216.7,3.8,308.7-30.7c136.1-51.7,253.1-153.4,325.9-281.8l57.5-101.6l109.3,49.9c525.4,237.7,738.2,314.4,998.9,350.8c88.2,13.4,228.2,19.2,310.6,13.4l149.6-9.6l157.2,289.5c423.8,778.4,801.5,1347.9,1298,1949.9l65.2,76.7l-141.9-1.9C9668.7-1164.1,9411.8-1177.5,9174-1191z"/><path d="M2012.8-3873.3c-186-34.5-331.7-86.3-703.7-251.2c-178.3-78.6-358.5-155.3-400.7-170.6c-164.9-59.4-268.4-21.1-343.2,126.5C477-3996,222-3992.2,151.1-4160.9c-36.4-88.2-34.5-116.9,19.2-233.9c97.8-207.1,312.5-358.6,540.7-381.6c159.1-15.4,345.1,38.3,711.3,205.1c289.5,132.3,592.5,247.3,648.1,247.3c15.3,0,46-38.3,69-86.3c55.6-111.2,218.6-266.5,337.5-320.2c70.9-32.6,128.5-40.3,255-40.3c187.9,0,287.6,32.6,699.8,220.5c241.6,111.2,552.2,226.2,607.8,226.2c15.3,0,44.1-36.4,65.2-80.5c49.8-111.2,199.4-258.8,320.2-312.5c237.8-109.3,437.2-78.6,928,145.7c281.8,128.5,592.4,247.3,644.2,247.3c13.4,0,46-42.2,74.8-92c67.1-118.9,220.5-262.7,337.4-316.4c69-30.7,126.6-40.3,243.5-40.3c182.1,0,314.5,42.2,699.8,218.6c235.8,107.4,559.9,230.1,611.6,230.1c11.5,0,38.3-34.5,59.4-76.7c126.5-245.4,396.9-404.6,650-377.7c141.9,15.3,312.5,76.7,673,237.8c163,72.8,337.4,147.6,387.3,166.8c140,51.8,205.2,193.6,141.9,314.5c-78.6,153.4-214.7,155.3-548.3,7.7c-120.8-53.7-301-132.3-398.8-176.4c-216.7-94-320.2-113.1-400.7-69c-63.3,30.7-140,164.9-140,239.7c0,67.1-53.7,151.5-115,184.1c-155.3,80.6-529.2-5.7-1054.5-243.5c-479.3-218.6-580.9-243.5-674.9-168.7c-59.4,46-111.2,149.6-111.2,220.5c0,74.8-55.6,157.2-132.3,193.6c-51.8,24.9-95.9,28.8-199.4,19.2c-264.6-24.9-431.4-80.5-1058.4-356.6c-130.4-59.4-266.5-105.4-320.2-111.2c-84.4-7.7-95.9-3.9-157.2,57.5c-36.4,36.4-70.9,92-78.6,122.7c-55.6,283.8-149.5,333.6-500.4,266.5c-214.7-40.3-358.5-92-697.9-245.4c-337.5-151.5-483.2-205.2-554.1-205.2c-113.1,0-232,132.3-232,258.8c0,72.9-55.6,157.2-126.5,191.7C2302.3-3838.8,2196.9-3838.8,2012.8-3873.3z"/></g></g>
</svg>